<svg width="31" height="31" viewBox="0 0 31 31" fill="none" xmlns="http://www.w3.org/2000/svg">
<rect width="30.7231" height="30.7231" rx="8.9418" fill="url(#paint0_linear_1053_15117)"/>
<path fill-rule="evenodd" clip-rule="evenodd" d="M7.3246 16.54C6.89179 16.3389 6.8918 15.6555 7.32463 15.4545C10.4622 13.9971 12.9977 11.4619 14.4554 8.32455C14.6565 7.89181 15.3397 7.89182 15.5407 8.32456C16.9984 11.4619 19.5337 13.997 22.6711 15.4544C23.1039 15.6554 23.1039 16.3388 22.6711 16.5399C19.5334 17.9974 16.998 20.5328 15.5405 23.6703C15.3394 24.1031 14.6561 24.1031 14.455 23.6703C12.9974 20.5328 10.4621 17.9975 7.3246 16.54Z" fill="#0C0012"/>
<path fill-rule="evenodd" clip-rule="evenodd" d="M19.4029 9.24414C19.1484 9.10842 19.1484 8.67985 19.403 8.54415C20.402 8.0116 21.2236 7.19008 21.7562 6.19115C21.8919 5.93665 22.3204 5.93665 22.4561 6.19116C22.9887 7.19001 23.8102 8.01149 24.8091 8.54404C25.0636 8.67976 25.0636 9.10832 24.8091 9.24403C23.8101 9.77664 22.9885 10.5982 22.4559 11.5972C22.3202 11.8518 21.8916 11.8518 21.7559 11.5972C21.2233 10.5983 20.4018 9.77675 19.4029 9.24414Z" fill="#0C0012"/>
<defs>
<linearGradient id="paint0_linear_1053_15117" x1="27.5" y1="31" x2="3" y2="-2" gradientUnits="userSpaceOnUse">
<stop stop-color="#0FEDFF"/>
<stop offset="1" stop-color="#8F5BFF"/>
</linearGradient>
</defs>
</svg>
